<!--
 SPDX-License-Identifier: EUPL-1.2
 Copyright CSI Piemonte - 2023
-->

<?xml version="1.0" encoding="UTF-8"?>
<svg id="Layer_1" data-name="Layer 1" xmlns="http://www.w3.org/2000/svg" viewBox="0 0 1946.87 1348.21">
  <defs>
    <style>
      .cls-1 {
        fill: #346ab8;
      }

      .cls-1, .cls-2, .cls-3, .cls-4, .cls-5, .cls-6, .cls-7, .cls-8, .cls-9, .cls-10, .cls-11 {
        stroke-width: 0px;
      }

      .cls-2 {
        fill: #4c4c5a;
      }

      .cls-3 {
        fill: #508ce4;
      }

      .cls-4 {
        fill: #e6e7e8;
      }

      .cls-5 {
        fill: #eda189;
      }

      .cls-6 {
        fill: #e88b6d;
      }

      .cls-7 {
        fill: #fff;
      }

      .cls-8 {
        fill: #fec40d;
      }

      .cls-9 {
        fill: #202a2e;
      }

      .cls-10 {
        fill: #1c1f37;
      }

      .cls-11 {
        fill: #bcbec0;
      }
    </style>
  </defs>
  <path class="cls-4" d="m194.14,1335.72S-92.11,835.19,30.56,459.94C153.24,84.7,472.55-21.74,701.67,3.52c229.11,25.26,375.24,174.99,689.15,144.32,313.9-30.67,633.22,274.22,539.41,649.46-93.81,375.24-273.72,540.33-273.72,540.33l-1462.37-1.91Z"/>
  <path class="cls-8" d="m1232.97,128.63l-15.83,90.27c-1.2,6.85-7.55,11.55-14.45,10.71h0c-6.9-.84-11.93-6.94-11.45-13.87l6.35-91.42c.71-10.2,9.82-17.72,19.97-16.48h0c10.15,1.24,17.18,10.73,15.42,20.8Zm-18.27,146.78h0c-1.16,9.5-9.8,16.27-19.31,15.11l-.26-.03c-9.5-1.16-16.27-9.8-15.11-19.31h0c1.16-9.5,9.8-16.27,19.31-15.11l.26.03c9.5,1.16,16.27,9.8,15.11,19.31Z"/>
  <path class="cls-3" d="m1259.23,220.36c2.5-3.5,6.86-7.44,13.09-11.81l19.68-13.65c4.78-3.34,8.34-6.37,10.69-9.08,2.34-2.71,4.08-5.85,5.2-9.41,1.71-5.43,1.58-10.18-.4-14.25-1.98-4.07-6.02-7.07-12.13-8.99-6.1-1.92-11.08-1.67-14.92.75-1.92,1.21-3.65,2.96-5.18,5.25-3.16,4.71-8.91,6.94-14.32,5.24l-6.35-2c-8.05-2.54-11.81-11.95-7.47-19.19,4.79-7.98,10.8-13.81,18.02-17.47,11.1-5.64,24.53-5.97,40.3-1.01,9.84,3.1,17.91,7.79,24.23,14.07,6.32,6.28,10.43,13.49,12.34,21.64,1.91,8.15,1.5,16.55-1.23,25.2-1.92,6.1-4.72,11.42-8.38,15.95-3.67,4.53-8.72,9.04-15.17,13.54l-21,15.19c-3.84,2.71-6.63,5.23-8.39,7.56-1.76,2.34-3.32,5.65-3.32,5.65-3.2,10.14-10.1,13.19-18.24,10.63-12.09-3.81-16.35-10.91-13.41-20.25,0,0,3.87-10.07,6.37-13.57Zm10.92,71.39h0c-2.79,8.85-12.22,13.76-21.07,10.98l-1.27-.4c-8.85-2.79-13.76-12.22-10.98-21.07h0c2.79-8.85,12.22-13.76,21.07-10.98l1.27.4c8.85,2.79,13.76,12.22,10.98,21.07Z"/>
  <ellipse class="cls-9" cx="890.63" cy="1337.63" rx="861.5" ry="10.58"/>
  <g>
    <ellipse class="cls-7" cx="1810.62" cy="617.17" rx="54.25" ry="27.84"/>
    <ellipse class="cls-7" cx="1752.62" cy="639.4" rx="54.25" ry="27.84"/>
    <ellipse class="cls-7" cx="1627.09" cy="624.82" rx="103.78" ry="27.84"/>
    <ellipse class="cls-7" cx="1705.97" cy="596.98" rx="27.86" ry="91.61" transform="translate(973.23 2249.2) rotate(-85.37)"/>
  </g>
  <path class="cls-7" d="m464.98,245.7c.28-1.4.48-2.81.48-4.26,0-18.99-25.28-34.39-56.47-34.39s-56.47,15.4-56.47,34.39c0,1.34.15,2.65.4,3.94-59.99.38-108.28,16.56-108.28,36.48s49.43,36.5,110.41,36.5c34.57,0,65.42-5.26,85.67-13.48,7.19.71,14.73,1.11,22.55,1.11,46.82,0,84.78-13.51,84.78-30.17s-37.04-29.81-83.06-30.13Z"/>
  <rect class="cls-2" x="661.62" y="839.93" width="8.76" height="497.7"/>
  <g>
    <path class="cls-2" d="m632.45,959l-275.38-275.38c-16.41-16.41-16.41-43.03,0-59.44l275.38-275.38c16.41-16.41,43.03-16.41,59.44,0l275.38,275.38c16.41,16.41,16.41,43.03,0,59.44l-275.38,275.38c-16.41,16.41-43.03,16.41-59.44,0Z"/>
    <path class="cls-11" d="m643.73,959l-275.38-275.38c-16.41-16.41-16.41-43.03,0-59.44l275.38-275.38c16.41-16.41,43.03-16.41,59.44,0l275.38,275.38c16.41,16.41,16.41,43.03,0,59.44l-275.38,275.38c-16.41,16.41-43.03,16.41-59.44,0Z"/>
    <path class="cls-2" d="m673.46,958.89c-7.91,0-15.34-3.08-20.93-8.67l-275.38-275.38c-11.54-11.54-11.54-30.32,0-41.87l275.38-275.38c5.59-5.59,13.03-8.67,20.93-8.67s15.34,3.08,20.93,8.67l275.38,275.38c5.59,5.59,8.67,13.03,8.67,20.93s-3.08,15.34-8.67,20.93l-275.38,275.39c-5.59,5.59-13.03,8.67-20.93,8.67Zm0-601.69c-5.69,0-11.05,2.22-15.08,6.24l-275.38,275.38c-8.31,8.31-8.31,21.84,0,30.15l275.38,275.38c4.03,4.03,9.38,6.24,15.08,6.24s11.05-2.22,15.08-6.24l275.38-275.38c4.03-4.03,6.25-9.38,6.25-15.07s-2.22-11.05-6.25-15.08l-275.38-275.38c-4.03-4.03-9.38-6.24-15.08-6.24Z"/>
    <path class="cls-10" d="m812.99,603.24l-78.04-30.78c-4.78-1.88-9.81,2.11-9.05,7.19l4.05,27.14c-25.59,7.84-47.02,24.98-60.55,47.27-13.55-22.32-35.02-39.48-60.66-47.3l4.04-27.11c.76-5.08-4.27-9.08-9.05-7.19l-78.04,30.78c-4.78,1.88-5.73,8.23-1.7,11.43l65.67,52.2c4.02,3.2,9.99.84,10.75-4.24l3.61-24.21c29.01,10.87,49.43,39.08,49.43,71.04v116.32h31.57v-116.32h.35c0-31.92,20.37-60.09,49.31-70.99l3.61,24.17c.76,5.08,6.73,7.44,10.75,4.24l65.67-52.2c4.02-3.2,3.07-9.55-1.7-11.43Z"/>
  </g>
  <g>
    <g>
      <path class="cls-2" d="m1139.15,807.72l1.51,115.14c2.62,73.85,5.63,163.54,13.56,237.01l14.78,136.75,40.31,7.54,8.11-95.93c2.3-27.21,2.92-54.53,1.86-81.81l-2.39-61.5-1.82-174.05s17.28,76.44,27.09,124.8c5.68,28.01,13.1,55.63,22.25,82.7l66.95,198.24h33.02l-36.07-224.54c-4.68-21.65-4.27-50.24-4.56-73.23l-8.3-191.13h-176.29Z"/>
      <path class="cls-10" d="m1169,1297.89c-.64,0-1.19-.48-1.26-1.13-.19-1.68-19.19-169.03-22.23-230.72l-7.45-244.95c-.02-.7.53-1.29,1.23-1.31.7,0,1.29.53,1.31,1.23l7.45,244.92c3.04,61.58,22.03,228.85,22.22,230.53.08.7-.42,1.33-1.12,1.41-.05,0-.1,0-.15,0Z"/>
      <path class="cls-5" d="m1189.77,603.32c-23.15,27.85-48.55,57.07-82.71,71.99-3.82,1.47-8.46,3.25-12.42,4.24-2.86.97-7.42,1.65-10.4,2.28-2.55.34-5.41.59-7.98.87-4.12.13-9.19.25-13.28-.19-38.2-3.26-71.5-28.69-98.93-53.2-8.4-7.56-17.62-16.6-25.53-24.65,0,0,19.97-20.28,19.97-20.28,5.76,5.38,12.81,11.79,18.75,16.95,25.54,21.51,63.12,51.3,97.85,46.5,25.35-3.58,45.75-24.36,62.44-43.29,7.11-8.23,13.97-16.95,20.67-25.89l31.56,24.65h0Z"/>
      <polygon class="cls-10" points="1209.31 1304.16 1169 1296.62 1150.85 1315.95 1100.72 1326.79 1098.36 1337.63 1211.9 1337.63 1209.31 1304.16"/>
      <path class="cls-3" d="m1129.05,760.32c.19-5.09.46-10.19.7-15.29.86-17.68,2.27-35.3,4.22-52.82,3.55-32.66,8.29-66.61,19.27-97.35,4.83-13.16,7.12-27.47,17.05-37.42,4.62-4.55,12.86-7.95,19.59-10.37.96-.34,2.56-.8,3.49-1.15,3.42-1.31,6.77-2.83,10.33-3.84,12.66-3.58,26.49-3.74,39.63-.92,3.78.81,7.49,1.88,11.1,3.18,6.51,2.34,12.67,5.47,18.23,9.31,10.38,7.31,19.26,17.27,26.26,28.78,22.61,39.28,25.23,94.16,25,143.72-.12,18.25-.51,36.51-1.18,54.78-.3,7.94.47,15.81-2.02,23.57-2.22,6.97-6.16,13.29-10.99,18.21-7.75,7.95-17.56,12.45-27.37,14.77-13.36,3.17-26.99,2.56-40.48,1.93-16.97-.79-33.96-1.58-50.96-2.37-6.14-.28-12.28-.57-18.42-.85-7.59-.35-15.46-.78-22.42-4.8-10.9-6.26-17.65-20.32-19.73-34.21-.05-.34-.09-.68-.14-1.03-1.65-12-1.62-23.92-1.19-35.85Z"/>
      <path class="cls-7" d="m1193.17,548.69c0,17.16,13.81,31.07,30.83,31.07s30.84-13.91,30.84-31.07c0-1.47-.1-2.92-.3-4.34-3.64-1.31-7.38-2.37-11.18-3.18-13.18-2.82-27-2.66-39.68.92-3.57,1.01-7.05,2.28-10.4,3.84-.08.91-.12,1.83-.12,2.76Z"/>
      <path class="cls-5" d="m1199.98,544.94c0,6.88,10.26,25.19,22.9,25.19s22.9-18.31,22.9-25.19c0-1.31-.38-2.58-1.07-3.77-14.65-2.82-30.03-2.66-44.13.92-.4.92-.6,1.87-.6,2.85Z"/>
      <polygon class="cls-10" points="1364.37 1296.62 1331.36 1296.62 1328.82 1314.14 1323.23 1318.46 1318.66 1337.63 1381.64 1337.63 1373.77 1317.12 1368.56 1313.5 1364.37 1296.62"/>
      <g>
        <path class="cls-10" d="m1289.2,425.58c-2.86-7.37-6.42-14.47-11.23-20.71-6.16-7.98-14.55-14.52-24.29-17.11-8.93-2.38-18.39-1.35-27.52.07-11.14,1.73-22.64,4.23-31.5,11.19-1.18.93-2.31,1.94-3.36,3.01-5.27,5.38-8.81,12.41-10.1,19.82-.63,3.59-.52,7.21-.52,10.81,0,3.3.87,7.8,3.14,10.31,2.67,2.95,5.48,5.79,8.96,7.79,2.92,1.68,6.45,2.97,9.81,3.25,3.86.32,7.83-.45,11.75-.12,8.05.67,15.95,3.1,22.98,7.15,9.97,5.74,17.82,14.67,21.67,25.59.84,2.37,1.55,4.94,3.41,6.63,1.89,1.71,4.67,2.17,7.17,1.72,2.51-.45,4.79-1.71,6.94-3.09,2.66-1.72,5.18-3.67,7.52-5.81,2.17-1.99,5.08-4.37,6.17-7.13,2.53-6.4,4.91-13.05,5.58-19.94.89-9.21-1.38-18.44-4.33-27.21-.7-2.09-1.44-4.16-2.24-6.22Z"/>
        <path class="cls-5" d="m1244.72,541.17c-1.97-8.57-2.34-17.39-2.02-25.12.55-13.13,3.09-23.08,3.09-23.08l-43.09,12.11c4.82,13.05,2.01,25.64-.21,32.24-1.01,3-1.9,4.76-1.9,4.76l44.13-.92Z"/>
        <path class="cls-6" d="m1202.48,537.33c1.31.22,2.65.32,4.03.32,12.47,0,25.49-8.92,36.18-21.6.55-13.13,3.09-23.08,3.09-23.08l-43.09,12.11c4.82,13.05,2.01,25.64-.21,32.24Z"/>
        <g>
          <path class="cls-5" d="m1184.47,433.72c-9.68,27.03-10.2,71.53,16.1,80.96,26.3,9.42,69.46-19.8,79.15-46.83,9.68-27.03-3.79-56.58-30.09-66-26.3-9.42-55.47,4.84-65.16,31.87Z"/>
          <ellipse class="cls-5" cx="1274.13" cy="478.3" rx="13.58" ry="9.4" transform="translate(-7.07 937.32) rotate(-40.29)"/>
        </g>
        <path class="cls-10" d="m1267.76,478.86c-.14.29-.29.58-.44.86-1.34,2.59-3.01,5.12-5.45,6.72-2.44,1.6-5.79,2.07-8.26.51-2.68-1.69-3.6-5.22-3.41-8.39.19-3.16,1.25-6.21,1.57-9.37.54-5.4-1.15-10.84-3.82-15.56-2.14-3.79-4.9-7.19-7.76-10.45-2.58-2.94-6.11-5.21-9.43-7.3-4.34-2.74-8.94-5.04-13.59-7.19-8.15-3.78-16.52-7.18-24.1-12-2.79-1.77-5.53-3.8-7.33-6.57-1.8-2.78-2.52-6.45-1.09-9.44,1.77-3.69,6.16-5.3,10.22-5.83,10.49-1.36,21.13,2.22,30.09,7.86,8.95,5.64,16.47,13.24,23.91,20.77,7.65,7.75,15.3,15.49,22.94,23.24,3.26,3.3,7.56,6.59,10,10.56,2.12,3.44-.46,5.85-2.86,8.14-.46.44-.83,1.02-1.33,1.4-.66.5-1.55.72-2.26,1.17-1.61,1.01-2.93,2.44-3.99,4-1.46,2.15-2.48,4.55-3.64,6.87Z"/>
        <path class="cls-10" d="m1222.7,504.1c-2.91.48-6.05.57-8.65-.82-3.59-1.92-5.22-6.07-7.39-9.51-4.45-7.06-12.22-11.92-20.51-12.83-3.22-.35-6.88.03-9.02,2.47-1.67,1.91-2.01,4.65-1.96,7.19.16,7.5,3.17,14.91,8.3,20.4s12.31,8.99,19.79,9.66c8.99.8,17.89-2.37,25.86-6.61,13.12-6.98,24.6-17,33.29-29.06.89-1.24,1.8-2.63,1.71-4.16-.13-2.41-2.78-4.05-5.2-3.97-2.21.07-5.84,1.33-7.44,3-1.92,2.01-2.71,5.57-4.25,7.94-3.51,5.39-8.44,9.85-14.15,12.81-3.25,1.69-6.76,2.89-10.38,3.49Z"/>
        <path class="cls-5" d="m1191.82,489.65c-1.56-.75-3.23-1.17-4.94-1.5.21,5.02,1.8,14.01,10.96,7.23-1.35-2.47-3.48-4.52-6.02-5.73Z"/>
      </g>
    </g>
    <ellipse class="cls-5" cx="939.21" cy="585.17" rx="20.25" ry="29.54" transform="translate(-147.67 793.09) rotate(-42.75)"/>
    <path class="cls-10" d="m1181.12,407.7c-.05-3.49,0-7.27,2.16-10.01,2.58-3.28,7.25-3.92,10.78-6.15,7.09-4.48,9-14.96,16.6-18.51,5.34-2.49,11.56-.66,17.38.25,7.38,1.15,15,.69,22.19-1.32,5-1.4,10.43-3.52,15.17-1.39,6.31,2.85,7.75,11.65,13.63,15.29,4.17,2.58,9.86,2.08,13.62,5.22,2.66,2.22,3.75,5.82,4.16,9.26.41,3.45.28,6.97,1.12,10.34,2.17,8.7,10.65,15.9,9.38,24.78-.71,4.98-4.44,9.06-5.58,13.96-1.09,4.67.27,9.58-.26,14.34-.68,6.11-4.78,11.77-10.34,14.39-2.16,1.02-2.38.78-2.45-1.5-.06-1.74.17-3.97-.64-5.54-.73-1.42-1.79-2.54-3.43-2.85-1.03-.19-5.63-1.83-7.27-1.25-4.52,1.6-5.14-1.42-8.21-5.1-2.91-3.5-4.74-7.71-6.46-11.88-.14-.34-.23-.67-.48-.92-.26-.27-.67-.47-.97-.69-.67-.49-1.33-.98-1.98-1.49-1.31-1.01-2.58-2.06-3.83-3.15-2.48-2.18-4.83-4.52-7.03-6.99-3.84-4.34-7.24-9.12-11.71-12.81-3.82-3.16-8.29-5.41-12.73-7.62-7.21-3.6-15.18-7.26-23.03-5.44-6.42,1.49-11.25,6.37-15.03,11.5-1.02,1.38-1.9,2.85-2.9,4.24-1.05,1.46-1.32,1.75-1.84-.12-.7-2.52.15-5.46.12-8.04-.05-3.61-.1-7.21-.14-10.82Z"/>
  </g>
  <path class="cls-7" d="m1199.98,568.15c4.29,4.4,9.46,53.68.6,103.48-8.85,49.8-20.34,128.61-19.72,164.96l49.75,2.31s22.19-87.1,21.15-136.54c-1.05-49.44-10.38-103.92-5.97-131.67l-16.97,4.18-28.84-6.71Z"/>
  <path class="cls-10" d="m1333.71,1300.03c-.53,0-1.02-.33-1.2-.86l-72.03-208.93c-8.78-25.45-15.97-51.74-21.38-78.13l-31.89-155.51c-.14-.69.3-1.36.99-1.5.69-.14,1.36.3,1.5.99l31.89,155.51c5.39,26.28,12.55,52.46,21.29,77.81l72.03,208.93c.23.66-.12,1.39-.79,1.62-.14.05-.28.07-.41.07Z"/>
  <path class="cls-3" d="m1173.99,554.49c-21.11,14.48-68.67,85.73-106.58,83.94-45.67-2.15-83.11-37.67-83.11-37.67l-30.62,37.19s64.29,48.75,110.91,48.28,81.7-25.12,81.7-25.12l36.51-81.34-8.81-25.27Z"/>
  <path class="cls-1" d="m1131.9,738.6s-.04,0-.06,0c-.7-.03-1.25-.62-1.21-1.33,3.65-82.68,18.51-140.36,30.12-164.64.3-.63,1.06-.9,1.69-.6.63.3.9,1.06.6,1.69-12.41,25.96-26.47,86.63-29.87,163.65-.03.68-.59,1.21-1.27,1.21Z"/>
  <path class="cls-5" d="m1345.11,634.58c19.17,61.11.65,114.3-61.24,137.97-27.68,10.63-57.57,14.14-86.54,14.44,0,0-1.52-24.19-1.52-24.19,25.86-3.37,51.34-9.29,74.09-21.22,13.15-7.01,25.5-16.63,32.02-29.41,9.89-19.18,4.35-41.3-4.01-60.51l47.2-17.08h0Z"/>
  <path class="cls-5" d="m1203.95,761.68c-37.61.05-58.98,23.12-35.12,41.38,23.85,18.27,37.98-16.39,37.98-16.39l-2.86-24.99Z"/>
  <path class="cls-3" d="m1257.62,545.58c30.88,9.15,106.82,54.36,96.22,149.01-10.6,94.65-130.95,98.53-130.95,98.53l-7.84-39.91s60.41-12.8,78.05-44.2c17.25-30.73,3.36-59.98-16.95-100.77-20.31-40.79-18.52-62.66-18.52-62.66Z"/>
  <path class="cls-1" d="m1223.18,795.57c-.57,0-1.08-.39-1.23-.96-4.77-18.68-8.14-40.99-8.17-41.21-.1-.66.33-1.28.97-1.43,1.06-.24,106.34-24.94,98.15-75.9-5.5-34.4-25.51-52.04-25.71-52.22-.53-.46-.59-1.26-.13-1.79.46-.53,1.26-.59,1.79-.13.85.73,20.9,18.37,26.56,53.74,3.56,22.17-12.71,42.85-47.08,59.79-22.67,11.18-46.43,17.38-51.87,18.72.74,4.68,3.68,22.8,7.65,38.67,8.67-1.52,64.43-12.05,96.74-36.92.56-.42,1.35-.32,1.78.23.43.56.32,1.35-.23,1.78-35.45,27.27-98.41,37.5-99.04,37.6-.07.01-.13.02-.2.02Z"/>
  <polygon class="cls-8" points="1216.32 568.15 1213.27 576.06 1222.88 584.01 1233.26 576.35 1229.34 568.15 1216.32 568.15"/>
  <path class="cls-8" d="m1229.27,579.3s4.63,45.01,25.57,71.38c20.94,26.37,16.23,57.92,16.23,57.92l-11.77,12.95-12.48-11.54s.47-36.26-10.12-51.33c-10.6-15.07-21.38-60.59-19.52-79.39h12.09Z"/>
</svg>